<?xml version="1.0" encoding="utf-8"?>
<!-- Generator: Adobe Illustrator 25.0.1, SVG Export Plug-In . SVG Version: 6.00 Build 0)  -->
<svg version="1.1" id="Layer_1" xmlns="http://www.w3.org/2000/svg" xmlns:xlink="http://www.w3.org/1999/xlink" x="0px" y="0px"
	 viewBox="0 0 800 310" style="enable-background:new 0 0 800 310;" xml:space="preserve">
<style type="text/css">
	.st0{fill:url(#SVGID_1_);}
	.st1{fill:#7357FF;}
	.st2{fill:#3ACB98;}
	.st3{fill:#FC7ED2;}
	.st4{fill:#FF9A4C;}
</style>
<g>
	<g>
		
			<linearGradient id="SVGID_1_" gradientUnits="userSpaceOnUse" x1="342.6519" y1="243.3234" x2="407.5892" y2="74.2524" gradientTransform="matrix(1 -7.516954e-05 7.516954e-05 1 0.2455 0.2106)">
			<stop  offset="0" style="stop-color:#FC7ED2"/>
			<stop  offset="1" style="stop-color:#FF9A4C"/>
		</linearGradient>
		<path class="st0" d="M376.5,60.4c-52.7,0-95.6,42.9-95.6,95.6c0,52.7,42.9,95.6,95.6,95.6c52.7,0,95.6-42.9,95.6-95.6
			C472.1,103.2,429.2,60.4,376.5,60.4z M373.6,175c-11.6,9.6-31,11.5-42.2,3.1c-6.1-4.6-8.2-11.3-9-14.1
			c-8.1-29.7,9.4-60.3,39.1-68.4c29.7-8.1,60.3,9.4,68.4,39.1c1.6,6,1.6,8.9,0.3,10.1c-5.1,4.6-16.5-4.6-29-1
			C387.3,147.8,389.2,162,373.6,175z"/>
	</g>
	<path class="st1" d="M616.1,196.1c0,16.9-8.1,30.5-23.5,39.4c-12.1,7-28.4,10.8-46,10.8c-15.8,0-32.5-3.7-44.5-9.8
		c-14.6-7.4-22.3-17.9-22.3-30.2l0-15.2c0-2.4,2-4.4,4.4-4.4l27.1,0c2.4,0,4.4,2,4.4,4.4l0,5.9c0,4.6,3,8.6,8.6,11.6
		c5.7,3,13.7,4.6,22.7,4.6c0,0,0,0,0,0c16.7,0,27.1-6.1,27.1-15.9c0-11-10.4-15.3-28.9-21.8c-2.6-0.9-5.1-1.8-7.7-2.8
		c-25.1-8.7-51.9-20.5-51.9-51.1c0-16,7.6-28.8,22-37.2c11.3-6.6,26.5-10.2,43-10.2c23.9,0,59.5,9.2,59.5,34.6l0,17.1
		c0,2.4-2,4.4-4.4,4.4l-27.4,0c-2.4,0-4.4-2-4.4-4.4l0-5.6c0-7.7-9.2-12.7-23.3-12.7c-11.1,0-23,3.7-23,14
		c0,12.6,14.6,17.9,33.7,23.6C590.1,154.5,616,165.3,616.1,196.1z M800,85.6l0,15.8c0,7.8-7.2,8.4-7.3,8.4c-4.1,0-6.4,2.1-6.4,5.7
		l0,116.4c0,26-9.7,46.9-28,60.5c-15,11.1-35.8,17.3-58.7,17.3c0,0,0,0,0,0c-18.5,0-38.7-4.6-55.4-12.6c-2.1-1-3-3.5-2.1-5.6
		l9.6-23.2c0.5-1.1,1.3-2,2.4-2.4c1.1-0.4,2.3-0.4,3.4,0.1c6.1,2.7,22.4,9.1,41.4,9.1c29.2,0,45.3-14.3,45.3-40.2l0-10.2
		c0-2.5,0.3-5.3,0.4-7.1c-10.4,14.9-24.8,21.8-45.2,21.8c0,0,0,0,0,0c-22.4,0-41.4-8.5-54.7-24.7c-12.3-14.9-19.1-35.7-19.1-58.5
		c0-22.8,6.6-43.3,18.6-57.8c13.1-15.8,31.8-24.1,54.3-24.1c17,0,39.8,6.1,50,23c-0.1-0.9-0.2-1.9-0.2-3.1c0-10,7.2-16,19.2-16
		l24.7,0C796.6,78,800,81.4,800,85.6z M705.7,110.1c-23.6,0-37.7,16.7-37.7,44.7c0,14.6,3.8,26.9,11,35.6
		c7.2,8.7,17.3,13.2,29.2,13.2c0,0,0,0,0,0c11.9,0,21.1-4.1,27.4-12.1c6.4-8.1,9.6-19.9,9.6-35.2
		C745.3,125.2,732.3,110.1,705.7,110.1z M276.9,210.8l-18.9,0l0-128.3c0-2.4-2-4.4-4.4-4.4l-58.4,0c-2.4,0-4.4,2-4.4,4.4l0,23
		c0,2.4,2,4.4,4.4,4.4l20.9,0l0,100.9l-19.3,0c-1.2,0-2.3,0.5-3.1,1.3c-0.8,0.8-1.3,1.9-1.3,3.1l0,23c0,2.4,2,4.4,4.4,4.4l80.2,0
		c2.4,0,4.4-2,4.4-4.4l0-23C281.3,212.7,279.3,210.8,276.9,210.8z M236.8,55c15.1,0,27.3-12.2,27.3-27.3c0-15.1-12.2-27.3-27.3-27.3
		c-15.1,0-27.3,12.2-27.3,27.3C209.5,42.8,221.7,55,236.8,55z M174.3,85.7l0,15.8c0,7.8-7.2,8.4-7.3,8.4c-4.1,0-6.4,2.1-6.4,5.7
		l0,116.4c0,26-9.7,46.9-28,60.5c-15,11.1-35.8,17.3-58.7,17.3c0,0,0,0,0,0c-18.5,0-38.7-4.6-55.4-12.6c-2.1-1-3-3.5-2.1-5.6
		l9.6-23.2c0.5-1.1,1.3-2,2.4-2.4c1.1-0.4,2.3-0.4,3.4,0.1c6.1,2.7,22.4,9.1,41.4,9.1c29.2,0,45.3-14.3,45.3-40.2l0-10.2
		c0-2.5,0.3-5.3,0.4-7.1c-10.4,14.9-24.8,21.8-45.1,21.8c0,0,0,0,0,0c-22.4,0-41.4-8.5-54.7-24.7C6.8,199.7,0,178.9,0,156.1
		c0-22.8,6.6-43.3,18.6-57.8c13.1-15.8,31.8-24.1,54.3-24.1c17,0,39.8,6.1,50,23c-0.1-0.9-0.2-1.9-0.2-3.1c0-10,7.2-16,19.2-16
		l24.7,0C170.9,78.1,174.3,81.5,174.3,85.7z M80,110.1c-23.6,0-37.7,16.7-37.7,44.7c0,14.6,3.8,26.9,11,35.6
		c7.1,8.7,17.3,13.2,29.2,13.2c0,0,0,0,0,0c11.9,0,21.1-4.1,27.4-12.1c6.4-8.1,9.6-19.9,9.6-35.2C119.6,125.3,106.6,110.1,80,110.1z
		"/>
	<g>
		<path class="st2" d="M117.5,137.6l5.8-5.8c2.6-2.6,2.6-6.7,0-9.3c-2.5-2.5-6.6-2.6-9.2-0.1l-2.1,2.1
			C114.4,128.2,116.2,132.5,117.5,137.6z"/>
		<path class="st2" d="M119.6,156.4c0,6.8-0.6,12.9-1.9,18.3l15.6-15.6h0l27.3-27.3c0,0,0,0,0,0l0-9.2c0,0,0,0,0,0
			c-2.5-2.5-6.6-2.6-9.2-0.1l-9.4,9.4l-22.4,22.4C119.5,154.9,119.6,155.7,119.6,156.4z"/>
		<path class="st2" d="M21.5,159.1L45,135.5c1.3-4.1,3-7.7,5.2-10.8c-0.3-0.8-0.8-1.6-1.5-2.2c-2.5-2.5-6.6-2.6-9.2-0.1l-9.4,9.4
			l-30,30c0.3,5.7,1,11.2,2.1,16.5L21.5,159.1L21.5,159.1z"/>
		<path class="st2" d="M160.6,187.7l-3.7,3.7c-2.6,2.6-6.7,2.6-9.3,0c-2.6-2.6-2.6-6.7,0-9.3l13-13l0-18.6l-41,41
			c-2.6,2.6-6.7,2.6-9.3,0c0,0-0.1-0.1-0.1-0.1c-0.1,0.1-0.1,0.2-0.2,0.3c-6.3,8-15.6,12.1-27.4,12.1c0,0,0,0,0,0
			c-12,0-22.1-4.6-29.2-13.2c-1.1-1.3-2.1-2.8-3-4.2l-5.2,5.2c-2.6,2.6-6.7,2.6-9.3,0c-2.6-2.6-2.6-6.7,0-9.3l8.9-8.9
			c-1.4-5-2.1-10.5-2.3-16.3L7.8,191.4c-0.4,0.4-0.9,0.8-1.4,1.1c3.2,8.3,7.4,15.7,12.7,22.1c13.4,16.2,32.3,24.7,54.7,24.7
			c0,0,0,0,0,0c20.4,0,34.7-6.9,45.1-21.8c-0.2,1.7-0.4,4.6-0.4,7.1l0,10.2c0,25.9-16.1,40.2-45.3,40.2c-19,0-35.2-6.4-41.4-9.1
			c-1.1-0.5-2.3-0.5-3.4-0.1c-1.1,0.4-2,1.3-2.4,2.4l-9.6,23.2c-0.9,2.2,0,4.6,2.1,5.6c16.7,8,36.9,12.6,55.4,12.6c0,0,0,0,0,0
			c22.8,0,43.7-6.1,58.7-17.3c18.3-13.6,28-34.5,28-60.5L160.6,187.7z"/>
		<path class="st2" d="M11.5,122.5C10,121,8,120.4,6,120.6c-2.5,6.8-4.2,14.1-5.2,21.8l10.7-10.7C14.1,129.3,14.1,125.1,11.5,122.5z
			"/>
	</g>
	<g>
		<path class="st3" d="M237.1,122.5c-2.6-2.6-6.7-2.6-9.3,0l-9.3,9.3l-2.6,2.6l0,18.6l21.2-21.2
			C239.7,129.3,239.7,125.1,237.1,122.5z"/>
		<path class="st3" d="M281,213.6c-0.6-1.6-2.2-2.8-4.1-2.8l-18.9,0l0-43.9l-24.5,24.5c-2.6,2.6-6.7,2.6-9.3,0
			c-2.6-2.6-2.6-6.7,0-9.3l23-23h0l10.8-10.8l0-18.6l-2,2l-0.2,0.2l-0.9,0.9L216,171.6l0,39.2l-19.3,0c-1.2,0-2.3,0.5-3.1,1.3
			c-0.8,0.8-1.3,1.9-1.3,3.1l0,23c0,2.4,2,4.4,4.4,4.4l80.2,0c1.9,0,3.5-1.2,4.1-2.8V213.6z"/>
	</g>
	<g>
		<path class="st3" d="M602.9,165.4c-2-1.8-4.2-3.5-6.5-5.1C597.3,163.2,599.8,165.3,602.9,165.4z"/>
		<path class="st3" d="M529.9,165.4c-2.2,0-4.1,1-5.5,2.5c4.2,1.7,8.5,3.3,12.8,4.8C537.2,168.6,533.9,165.4,529.9,165.4z"/>
		<path class="st3" d="M550.4,74.2c-16.4,0-31.7,3.6-43,10.2c-14.4,8.4-22,21.2-22,37.2c0,12.9,4.8,22.5,12.2,29.9
			c0.9-0.4,1.9-0.6,3-0.6c4,0,7.3,3.3,7.3,7.3c0,0.5,0.1,1,0.2,1.5c3.1,1.9,6.3,3.7,9.7,5.3c2.7-1,4.7-3.7,4.7-6.8
			c0-4,3.3-7.3,7.3-7.3c4,0,7.3,3.3,7.3,7.3s3.3,7.3,7.3,7.3c4,0,7.3-3.3,7.3-7.3s3.3-7.3,7.3-7.3c4,0,7.3,3.3,7.3,7.3
			s3.3,7.3,7.3,7.3c4,0,7.3-3.3,7.3-7.3c0-1.9,0.8-3.7,2-5c-6.8-3-14.2-5.5-21.8-8c-19.1-5.7-33.7-11-33.7-23.6
			c0-10.3,11.9-14,23-14c14.1,0,23.3,5,23.3,12.7l0,5.6c0,2.4,2,4.4,4.4,4.4l27.4,0c2.4,0,4.4-2,4.4-4.4l0-17.1
			C610,83.4,574.4,74.2,550.4,74.2z"/>
		<circle class="st3" cx="603.3" cy="187.2" r="7.3"/>
		<path class="st3" d="M595.6,172.7c0-4-3.3-7.3-7.3-7.3c-4,0-7.3,3.3-7.3,7.3c0,4,3.3,7.3,7.3,7.3
			C592.3,180,595.6,176.7,595.6,172.7z"/>
		<path class="st3" d="M580.5,187.2c0-4-3.3-7.3-7.3-7.3c-3.1,0-5.8,2-6.8,4.8c4.1,2.7,6.6,5.7,7.4,9.8
			C577.6,194.2,580.5,191,580.5,187.2z"/>
		<circle class="st3" cx="559.1" cy="172.7" r="7.3"/>
	</g>
	<g>
		<path class="st4" d="M792.4,78l-24.7,0c-12,0-19.2,6-19.2,16c0,1.2,0.1,2.2,0.2,3.1c-10.2-16.9-33.1-23-50-23
			c-22.5,0-41.2,8.3-54.3,24.1c-11.2,13.5-17.7,32.2-18.5,53c0.7-0.3,1.5-0.4,2.4-0.4c4,0,7.3,3.3,7.3,7.3c0,4,3.3,7.3,7.3,7.3
			c4,0,7.3-3.3,7.3-7.3c0-4,3.3-7.3,7.3-7.3c4,0,7.3,3.3,7.3,7.3c0,2.8,1.6,5.3,4,6.5c-0.4-3.1-0.6-6.4-0.6-9.9
			c0-28,14.1-44.7,37.7-44.7c25.2,0,38.1,13.5,39.5,41.2c2.8,1,4.8,3.7,4.8,6.8c0,4,3.3,7.3,7.3,7.3s7.3-3.3,7.3-7.3
			c0-4,3.3-7.3,7.3-7.3c4,0,7.3,3.3,7.3,7.3c0,4,3.2,7.2,7.2,7.3l0-50c0-3.6,2.3-5.7,6.4-5.7c0.1,0,7.3-0.6,7.3-8.4l0-15.8
			C799.9,81.4,796.5,78,792.4,78z"/>
		<path class="st4" d="M657.3,165.4c-4,0-7.3,3.3-7.3,7.3s3.3,7.3,7.3,7.3c4,0,7.3-3.3,7.3-7.3S661.4,165.4,657.3,165.4z"/>
		<path class="st4" d="M664.6,187.2c0,4,3.3,7.3,7.3,7.3c3,0,5.6-1.8,6.7-4.4c-2.4-3-4.4-6.4-6-10.1c-0.2,0-0.5,0-0.7,0
			C667.9,179.9,664.6,183.1,664.6,187.2z"/>
		<path class="st4" d="M742.6,180c4,0,7.3-3.3,7.3-7.3c0-3.3-2.1-6-5.1-7c-0.5,5.3-1.5,10-3,14.2C742.1,180,742.3,180,742.6,180z"/>
		<circle class="st4" cx="757.2" cy="187.2" r="7.3"/>
		<path class="st4" d="M786.2,179.9c-4,0.1-7.2,3.3-7.2,7.3c0,4,3.2,7.2,7.2,7.3L786.2,179.9z"/>
		<path class="st4" d="M779.1,172.7c0-4-3.3-7.3-7.3-7.3c-4,0-7.3,3.3-7.3,7.3s3.3,7.3,7.3,7.3C775.8,180,779.1,176.7,779.1,172.7z"
			/>
		<path class="st4" d="M628.1,165.4c-0.7,0-1.4,0.1-2.1,0.3c0.4,4.9,1.2,9.7,2.2,14.3c3.9-0.1,7.1-3.3,7.1-7.3
			C635.4,168.6,632.2,165.4,628.1,165.4z"/>
		<path class="st4" d="M642.7,179.9c-4,0-7.3,3.3-7.3,7.3s3.3,7.3,7.3,7.3c4,0,7.3-3.3,7.3-7.3S646.8,179.9,642.7,179.9z"/>
	</g>
</g>
</svg>
